<?xml version="1.0" encoding="utf-8"?>
<svg width="443.99994px" height="160px" viewBox="0 0 443.99994 160" version="1.1" xmlns:xlink="http://www.w3.org/1999/xlink" xmlns="http://www.w3.org/2000/svg">
  <defs>
    <linearGradient gradientUnits="userSpaceOnUse" x1="0" y1="0" x2="443.99994" y2="159.99997" id="gradient_1">
      <stop offset="0%" stop-color="#282663" />
      <stop offset="100%" stop-color="#054DA1" />
    </linearGradient>
    <path d="M67.8335 4.57764e-05C67.8335 4.57764e-05 70.9177 15.4458 76.4956 43.3794C82.0735 71.313 90.145 111.734 90.145 111.734L134.768 4.57764e-05L166.004 6.10352e-05L102.416 156.428L67.8335 156.428C67.8335 156.428 48.6897 42.5882 45.5218 22.3469C23.768 14.5255 -5.51588 0.00012207 0.898697 4.57764e-05C7.31326 -4.57764e-05 67.8335 4.57764e-05 67.8335 4.57764e-05ZM417.888 90.872L359.53 90.872L349.629 133.371L418.237 133.371L413.844 159.633L314.593 159.633L344.958 0.970383L444 0.970383L439.503 27.4505L371.208 27.4505L363.713 65.2636L422.281 65.2636L417.888 90.872ZM272.41 115.666C273.874 107.092 269.795 100.534 260.174 95.9948L250.447 90.8402C227.02 80.0316 215.899 65.1518 217.084 46.2007C217.572 37.4097 220.361 29.6276 225.451 22.8542C230.541 16.0808 237.688 10.7666 246.891 6.9115C256.095 3.05643 266.03 1.20096 276.698 1.34506C291.41 1.63332 303.298 6.15491 312.362 14.9099C321.426 23.6648 325.888 35.3922 325.749 50.0919L295.21 50.0919C295.558 42.9582 294.042 37.4098 290.66 33.4466C287.279 29.4835 282.032 27.4298 274.92 27.2857C267.948 27.1416 261.882 28.7809 256.722 32.2036C251.563 35.6263 248.495 40.3281 247.519 46.3088C246.194 54.1631 251.284 60.3961 262.788 65.0077L276.593 70.412C276.593 70.412 290.05 78.0298 290.05 78.0298C299.151 85.7621 304.274 96.319 302.949 115.342C302.322 124.638 299.445 132.654 294.321 139.391C289.196 146.129 282.224 151.299 273.404 154.902C264.584 158.504 254.875 160.198 244.277 159.982C233.469 159.765 223.848 157.424 215.411 152.956C206.974 148.488 200.56 142.184 196.167 134.041C192.054 126.475 190.136 117.828 190.415 108.1L221.059 108.208C220.082 125.286 228.205 133.969 245.427 134.257C252.888 134.257 259.023 132.564 263.834 129.177C268.645 125.79 271.504 121.287 272.41 115.666L272.41 115.666ZM165.106 157.398L133.869 157.398L178.492 0.970306L209.291 0.970306L165.106 157.398Z" id="path_1" />
    <clipPath id="clip_1">
      <use xlink:href="#path_1" />
    </clipPath>
  </defs>
  <g id="VISE">
    <use stroke="none" fill="url(#gradient_1)" xlink:href="#path_1" fill-rule="evenodd" />
    <g clip-path="url(#clip_1)">
      <use xlink:href="#path_1" fill="none" stroke="url(#gradient_1)" stroke-width="2" stroke-linejoin="round" />
    </g>
  </g>
</svg>