<?xml version="1.0" encoding="utf-8"?>
<svg width="1528.0742px" height="531.0073px" viewBox="0 0 1528.0742 531.0073" version="1.1" xmlns:xlink="http://www.w3.org/1999/xlink" xmlns="http://www.w3.org/2000/svg">
  <path d="M17.6077 44.5018C7.73264 64.7518 1.81825 70.8975 0.107529 84.0017C-1.06738 93.0016 7.6335 101.943 14.1077 99.0019C28.308 92.5518 29.3077 86.2277 33.6078 77.0028C41.7115 59.6181 57.7329 34.0018 82.1081 44.5018C106.483 55.0018 149.609 181.252 171.108 243.502C173.533 250.522 176.409 259.043 179.642 268.624C205.082 344.004 252.679 485.036 277.109 477.503C315.991 465.515 377.28 319.968 407.11 259.002C404.383 297.964 400.36 358.378 420.609 413.003C440.86 467.627 512.725 504.978 567.61 456.003C597.861 429.01 611.446 397.603 620.611 384.003C625.336 396.203 638.648 437.725 656.112 456.003C710.631 513.064 764.502 456.487 841.111 334.003C866.049 294.133 873.588 278.302 885.113 259.002C894.437 294.002 922.737 356.252 979.612 424.502C949.237 445.378 900.825 472.839 878.612 491.503C870.286 498.498 877.4 546.636 1000.61 524.002C1037.8 517.172 1022.03 461.5 1015.99 440.189C1015.04 436.833 1014.33 434.33 1014.11 433.003C1025.42 423.441 1134.61 348.753 1160.11 323.003C1170.86 366.752 1203.49 477.503 1275.12 477.503C1316.74 477.503 1372.24 442.253 1439.11 334.003C1469.07 285.512 1501.32 233.43 1520.61 188.503C1527.47 172.542 1528.98 137.626 1524.61 126.002C1521.3 117.209 1505.23 113.753 1501.61 129.003C1500.65 133.028 1500.31 137.072 1499.91 141.771C1498.3 160.711 1495.78 190.275 1448.61 272.002C1424.97 312.947 1364.89 395.291 1335.62 422.003C1269.87 482.003 1229.24 447.117 1195.61 356.003C1184.28 325.288 1182.74 313.377 1180.61 306.003C1199.24 288.377 1259.91 230.178 1260.11 184.003C1260.23 154.628 1234.28 60.9883 1165.11 154.502C1137.18 192.254 1153.47 290.757 1154.11 294.503C1138.5 307.927 1015.66 401.223 1000.61 410.503C992.608 399.943 922.2 313.925 908.114 243.502C907.904 242.453 907.608 241.234 907.287 239.913C905.926 234.305 904.123 226.876 906.608 223.002C907.274 221.963 907.947 220.917 908.623 219.864C925.779 193.174 945.409 162.635 921.611 154.503C885.677 142.222 881.548 189.241 879.774 209.443C879.379 213.948 879.1 217.12 878.612 218.003C875.005 224.524 865.765 246.643 841.111 285.503C759.987 413.377 711.487 482.503 673.612 439.503C657.748 421.492 655.486 409.128 646.112 384.003C637.897 361.985 638.693 352.044 639.697 339.508C639.839 337.738 639.985 335.917 640.11 334.003C641.44 313.698 660.361 271.002 660.611 243.502C660.751 228.049 654.987 215.503 646.112 215.503C637.237 215.503 627.922 216.582 620.611 233.002C610.052 256.717 610.979 282.841 611.727 303.944L611.727 303.945C612.159 316.106 612.531 326.599 610.612 334.003C601.363 369.676 567.043 453.25 499.611 450.502C456.579 448.749 434.659 372.439 428.61 334.003C420.484 282.378 451.401 173.049 467.11 126.002C471.276 113.523 467.735 106.503 462.11 104.503C456.485 102.503 449.11 100.767 442.61 118.002C433.929 141.021 301.923 442.244 280.609 442.502C261.888 442.73 234.327 342.074 214.699 270.393C207.766 245.073 201.823 223.368 197.609 211.002C184.609 172.852 150.733 74.6266 131.108 44.5018C111.483 14.3771 101.468 9.8277 92.6081 5.50287C71.6189 -4.74274 54.1694 1.33182 45.1079 7.50262C29.3985 18.2004 27.4828 24.2517 17.6077 44.5018ZM1234.61 193.003C1224.73 224.378 1185.11 270.378 1177.61 273.003C1175.61 261.128 1174.73 209.878 1184.61 178.503C1194.48 147.128 1204.61 143.878 1217.11 147.503C1229.61 151.128 1242.48 163.377 1234.61 193.003ZM919.608 494.003C920.608 496.878 971.377 508.197 991.607 496.503C997.917 484.808 998.957 464.223 991.607 447.503C973.357 458.503 922.607 490.488 919.608 494.003Z" id="Vector-Subtract" fill="#282663" fill-rule="evenodd" stroke="#282663" stroke-width="1" stroke-linecap="round" stroke-linejoin="round" />
</svg>