<?xml version="1.0" encoding="utf-8"?>
<svg width="444.00006px" height="157px" viewBox="0 0 444.00006 157" version="1.1" xmlns:xlink="http://www.w3.org/1999/xlink" xmlns="http://www.w3.org/2000/svg">
  <defs>
    <linearGradient gradientUnits="userSpaceOnUse" x1="0" y1="0" x2="444.00006" y2="157.00003" id="gradient_1">
      <stop offset="0%" stop-color="#282663" />
      <stop offset="100%" stop-color="#054DA1" />
    </linearGradient>
    <path d="M67.8335 7.62939e-05C67.8335 7.62939e-05 70.9177 15.5023 76.4956 43.538C82.0735 71.5738 90.145 112.143 90.145 112.143L134.768 7.62939e-05L166.004 9.15527e-05L102.416 157L67.8335 157C67.8335 157 48.6897 42.744 45.5218 22.4287C23.768 14.5787 -5.51588 0.000152588 0.898697 7.62939e-05C7.31326 -1.52588e-05 67.8335 7.62939e-05 67.8335 7.62939e-05ZM417.889 88.9595L359.53 88.9595L349.629 131.013L418.237 131.013L413.845 157L314.593 157L344.958 0L444 0L439.503 26.2026L371.209 26.2026L363.713 63.6195L422.281 63.6195L417.889 88.9595ZM272.022 113.131C273.486 104.646 269.407 98.1575 259.785 93.6655L250.059 88.565C226.631 77.8697 215.51 63.1458 216.696 44.3933C217.184 35.6944 219.973 27.9938 225.063 21.2914C230.152 14.589 237.299 9.33047 246.503 5.51581C255.706 1.70114 265.642 -0.134888 276.31 0.00770569C291.021 0.292938 302.909 4.76714 311.973 13.4303C321.037 22.0936 325.5 33.698 325.36 48.2437L294.821 48.2437C295.17 41.1848 293.653 35.6945 290.272 31.7728C286.89 27.8512 281.643 25.8191 274.532 25.6765C267.559 25.5339 261.493 27.156 256.334 30.5428C251.174 33.9297 248.106 38.5822 247.13 44.5003C245.805 52.2722 250.895 58.4398 262.4 63.0032L276.205 68.3509C276.205 68.3509 289.662 75.8888 289.662 75.8888C298.762 83.5402 303.885 93.9864 302.561 112.81C301.933 122.008 299.057 129.94 293.932 136.607C288.807 143.274 281.835 148.39 273.015 151.955C264.195 155.52 254.486 157.196 243.888 156.982C233.081 156.768 223.459 154.451 215.023 150.03C206.586 145.609 200.171 139.37 195.779 131.313C191.665 123.826 189.748 115.27 190.027 105.644L220.67 105.751C219.694 122.65 227.817 131.242 245.039 131.527C252.499 131.527 258.635 129.851 263.446 126.5C268.256 123.149 271.115 118.693 272.022 113.131L272.022 113.131ZM165.236 157L134 157L178.623 3.05176e-05L209.422 3.05176e-05L165.236 157Z" id="path_1" />
    <clipPath id="clip_1">
      <use xlink:href="#path_1" />
    </clipPath>
  </defs>
  <g id="VISE">
    <use stroke="none" fill="url(#gradient_1)" xlink:href="#path_1" fill-rule="evenodd" />
    <g clip-path="url(#clip_1)">
      <use xlink:href="#path_1" fill="none" stroke="url(#gradient_1)" stroke-width="2" stroke-linejoin="round" />
    </g>
  </g>
</svg>