<?xml version="1.0" encoding="utf-8"?>
<svg width="1528.0742px" height="538.9712px" viewBox="0 0 1528.0742 538.9712" version="1.1" xmlns:xlink="http://www.w3.org/1999/xlink" xmlns="http://www.w3.org/2000/svg">
  <path d="M0.107529 118.464C1.81825 105.36 7.73264 99.2138 17.6077 78.9635C27.4828 58.7135 29.3985 52.6622 45.1079 41.9644C54.1694 35.7935 71.6189 29.719 92.6081 39.9646C101.468 44.2894 111.483 48.8388 131.108 78.9636C150.733 109.089 184.609 207.314 197.609 245.464C201.823 257.831 207.766 279.536 214.699 304.856C234.327 376.538 261.888 477.194 280.609 476.966C301.923 476.707 420.489 233.181 442.61 14.9619C444.468 -3.36272 456.485 -0.537415 462.11 1.46246C467.735 3.46259 471.276 10.4826 467.11 22.9618C451.401 70.0091 420.484 316.841 428.61 368.466C434.659 406.902 456.579 483.212 499.611 484.966C567.043 487.714 601.363 404.14 610.612 368.466C612.531 361.063 612.159 350.57 611.727 338.409L611.727 338.408C610.979 317.305 610.052 291.18 620.611 267.465C627.922 251.044 637.237 249.964 646.112 249.964C654.987 249.964 660.751 262.511 660.611 277.964C660.361 305.465 641.44 348.162 640.11 368.466C639.985 370.381 639.839 372.202 639.697 373.971C638.693 386.507 637.897 396.448 646.112 418.466C655.486 443.591 657.748 455.956 673.612 473.966C711.487 516.966 759.987 447.84 841.111 319.967C865.765 281.106 875.005 258.986 878.612 252.464C879.1 251.581 879.379 248.41 879.774 243.905C881.548 223.703 885.677 176.684 921.611 188.964C945.409 197.098 925.779 227.637 908.622 254.328C907.946 255.38 907.273 256.426 906.608 257.465C904.124 261.338 905.926 268.767 907.287 274.375C907.608 275.696 907.904 276.916 908.114 277.964C922.2 348.388 988.996 407.906 997 418.466C1012.05 409.187 1138.5 342.39 1154.11 328.966C1153.47 325.22 1137.18 226.716 1165.11 188.964C1234.28 95.4503 1260.23 189.09 1260.11 218.465C1259.91 264.64 1199.24 322.841 1180.61 340.466C1182.74 347.841 1184.28 359.751 1195.61 390.466C1229.24 481.58 1269.87 516.466 1335.62 456.466C1364.89 429.754 1424.97 347.411 1448.61 306.465C1495.78 224.737 1498.3 195.173 1499.91 176.233C1500.31 171.534 1500.65 167.49 1501.61 163.465C1505.23 148.215 1521.3 151.671 1524.61 160.464C1528.98 172.088 1527.47 207.004 1520.61 222.965C1501.32 267.893 1469.07 319.976 1439.11 368.466C1372.24 476.716 1316.74 511.966 1275.12 511.966C1203.49 511.966 1170.86 401.216 1160.11 357.466C1134.61 383.216 1021.81 431.405 1010.5 440.967C1010.72 442.294 1011.43 444.798 1012.38 448.154C1018.42 469.466 1034.19 525.136 997 531.966C873.788 554.6 866.674 506.463 875 499.466C897.213 480.802 945.625 453.341 976 432.466C919.125 364.216 894.437 328.466 885.113 293.465C873.588 312.764 866.049 328.597 841.111 368.466C764.502 490.951 710.631 547.528 656.112 490.467C638.648 472.19 625.336 430.666 620.611 418.466C611.446 432.066 597.861 463.474 567.61 490.467C512.725 539.442 440.86 502.091 420.609 447.466C400.36 392.841 404.383 332.428 407.11 293.465C377.28 354.431 315.991 499.978 277.109 511.966C252.678 519.499 205.079 378.458 179.639 303.078C176.407 293.5 173.532 284.983 171.108 277.964C149.609 215.714 106.483 89.4637 82.1081 78.9635C57.7329 68.4635 41.7115 94.08 33.6078 111.465C29.3077 120.69 28.308 127.014 14.1077 133.464C7.6335 136.405 -1.06738 127.463 0.107529 118.464ZM629.655 219.65C636.698 229.305 658.91 232.392 668.662 221.905C678.413 211.418 675.704 187.358 668.662 177.703C661.619 168.048 650.242 172.8 640.491 183.287C630.739 193.773 622.613 209.995 629.655 219.65ZM1234.61 227.464C1224.73 258.839 1185.11 304.839 1177.61 307.464C1175.61 295.589 1174.73 244.339 1184.61 212.964C1194.48 181.589 1204.61 178.339 1217.11 181.964C1229.61 185.589 1242.48 197.839 1234.61 227.464ZM984.607 512.965C964.377 524.659 913.607 513.34 912.607 510.465C915.607 506.949 966.357 474.965 984.607 463.965C991.957 480.685 990.917 501.269 984.607 512.965Z" id="Vector-Subtract" fill="#0D6EFD" fill-rule="evenodd" stroke="#0D6EFD" stroke-width="1" stroke-linecap="round" stroke-linejoin="round" />
</svg>