<?xml version="1.0" encoding="utf-8"?>
<svg width="457.00415px" height="157px" viewBox="0 0 457.00415 157" version="1.1" xmlns:xlink="http://www.w3.org/1999/xlink" xmlns="http://www.w3.org/2000/svg">
  <defs>
    <linearGradient gradientUnits="userSpaceOnUse" x1="0" y1="0" x2="457.0042" y2="157.00003" id="gradient_1">
      <stop offset="0%" stop-color="#282663" />
      <stop offset="100%" stop-color="#054DA1" />
    </linearGradient>
    <path d="M67.8335 7.62939e-05L106.004 130L139.128 6.10352e-05L173.004 0L126.004 157L87.4213 157C87.4213 157 48.6897 42.744 45.5218 22.4287C23.768 14.5787 -5.51588 0.000152588 0.898697 7.62939e-05C7.31326 -1.52588e-05 67.8335 7.62939e-05 67.8335 7.62939e-05ZM430.893 88.9595L372.534 88.9595L362.633 131.013L431.241 131.013L426.849 157L327.597 157L357.962 0L457.004 0L452.507 26.2026L384.213 26.2026L376.717 63.6195L435.285 63.6195L430.893 88.9595ZM285.026 113.131C286.49 104.646 282.411 98.1575 272.789 93.6655L263.063 88.565C239.636 77.8697 228.515 63.1458 229.7 44.3933C230.188 35.6944 232.977 27.9938 238.067 21.2914C243.157 14.589 250.303 9.33047 259.507 5.51581C268.71 1.70114 278.646 -0.134888 289.314 0.00770569C304.025 0.292938 315.913 4.76714 324.977 13.4303C334.041 22.0936 338.504 33.698 338.364 48.2437L307.825 48.2437C308.174 41.1848 306.657 35.6944 303.276 31.7728C299.894 27.8512 294.648 25.8191 287.536 25.6765C280.563 25.5339 274.497 27.156 269.338 30.5429C264.178 33.9297 261.11 38.5822 260.134 44.5003C258.81 52.2722 263.899 58.4398 275.404 63.0032L289.209 68.3509C289.209 68.3509 302.666 75.8888 302.666 75.8888C311.766 83.5402 316.889 93.9864 315.565 112.81C314.937 122.008 312.061 129.94 306.936 136.607C301.812 143.274 294.839 148.39 286.019 151.955C277.199 155.52 267.49 157.196 256.892 156.982C246.085 156.768 236.463 154.451 228.027 150.03C219.59 145.609 213.176 139.37 208.783 131.313C204.669 123.826 202.752 115.27 203.031 105.644L233.674 105.751C232.698 122.65 240.821 131.242 258.043 131.527C265.503 131.527 271.639 129.851 276.45 126.5C281.261 123.149 284.119 118.693 285.026 113.131L285.026 113.131ZM178.24 157L147.004 157L191.627 3.05176e-05L222.426 3.05176e-05L178.24 157Z" id="path_1" />
    <clipPath id="clip_1">
      <use xlink:href="#path_1" />
    </clipPath>
  </defs>
  <g id="VISE">
    <use stroke="none" fill="url(#gradient_1)" xlink:href="#path_1" fill-rule="evenodd" />
    <g clip-path="url(#clip_1)">
      <use xlink:href="#path_1" fill="none" stroke="url(#gradient_1)" stroke-width="2" stroke-linejoin="round" />
    </g>
  </g>
</svg>